<svg width="20" height="20" viewBox="0 0 20 20" fill="none" xmlns="http://www.w3.org/2000/svg">
<path d="M13.8487 0H13.991C14.1052 1.41044 13.5668 2.46432 12.9125 3.22751C12.2705 3.98542 11.3914 4.7205 9.96955 4.60897C9.87471 3.21872 10.4139 2.24301 11.0673 1.48158C11.6733 0.771967 12.7843 0.140517 13.8487 0ZM18.1529 14.6805V14.7201C17.7533 15.9303 17.1834 16.9675 16.4878 17.93C15.8528 18.8038 15.0747 19.9798 13.6854 19.9798C12.4848 19.9798 11.6874 19.2078 10.457 19.1868C9.15543 19.1657 8.43967 19.8323 7.24967 20H6.84392C5.97008 19.8735 5.26486 19.1815 4.75109 18.5579C3.23614 16.7154 2.06546 14.3354 1.84766 11.2897V10.3948C1.93987 8.21499 2.99902 6.44272 4.40683 5.58381C5.14981 5.12712 6.1712 4.73807 7.30851 4.91196C7.79593 4.98748 8.29389 5.15435 8.73037 5.31946C9.14402 5.47842 9.66129 5.76033 10.1513 5.7454C10.4833 5.73574 10.8135 5.56273 11.1481 5.44065C12.1283 5.08673 13.089 4.68098 14.3555 4.87156C15.8774 5.10166 16.9577 5.77789 17.6251 6.82124C16.3376 7.64063 15.3197 8.87542 15.4936 10.9841C15.6482 12.8995 16.7618 14.0201 18.1529 14.6805Z" fill="#C0C0C0"/>
</svg>
