<svg width="137" height="96" viewBox="0 0 137 96" fill="none" xmlns="http://www.w3.org/2000/svg">
<path d="M32.4249 0.00142579C32.4519 0.183748 32.9191 0.425896 32.704 0.562638C32.2639 0.843244 31.5503 0.989957 31.1286 1.42155C30.2868 2.28331 30.19 4.86574 30.4976 5.96964C30.5689 6.22603 30.4492 6.45394 30.8309 6.37702C32.5402 4.02677 34.6141 1.97706 36.7365 0.00142579H38.2364C39.967 0.609643 41.0196 2.20069 42.3757 3.26614C42.7446 3.55672 44.998 5.06373 45.2643 5.06373H48.3567C48.2869 5.84715 46.9907 5.92976 46.5392 6.43257C46.2614 6.74309 46.0706 7.51084 45.7315 7.96949C44.3826 9.79272 42.2731 9.76281 40.3174 8.8868C37.9771 7.83845 36.6425 5.29306 34.3549 4.35011C33.0131 5.17483 32.12 6.93823 30.5803 7.52936L30.7298 30.4764L30.9577 31.4692C36.1568 32.8865 40.6735 32.0674 45.0436 29.0306C45.9068 28.4309 46.2942 27.3199 47.6046 27.9395C47.8724 28.3141 45.676 29.938 45.3512 30.2755C44.8997 30.7456 44.5764 31.435 44.1462 31.8822C42.6392 33.4434 37.2678 36.3748 35.144 36.3748H30.9278L30.3652 75.3733C37.5769 75.4801 44.8071 75.2295 52.0203 75.3648C53.1541 75.3861 54.6155 75.7266 55.7536 75.7551C58.9969 75.8391 62.2688 75.6126 65.5079 75.7479C65.7386 75.7579 66.2044 75.6055 66.1617 75.936H55.6667V79.873C55.3363 79.9143 55.4887 79.4499 55.4787 79.2192C55.4288 78.1167 55.2892 77.037 55.2921 75.936H30.3666L30.086 96L29.8054 75.936H0.00275105C-0.0399808 75.6055 0.425796 75.7579 0.656548 75.7479C2.7732 75.6596 4.91122 75.8291 7.0293 75.7465C7.63751 75.7223 8.22721 75.3961 8.8981 75.3662C15.7836 75.0614 22.8956 75.6069 29.8025 75.3733L29.2143 36.493L28.928 36.2167C22.7959 34.694 18.0171 30.7199 16.2095 24.5666C13.0531 13.8209 20.6722 5.12783 29.6174 0.659496L32.0502 0H32.4249V0.00142579ZM29.6131 3.93846C24.6804 5.22611 21.7903 7.27012 20.524 12.3752C18.9486 18.718 21.6906 26.1177 27.1873 29.7115C27.7215 30.0604 28.559 30.247 29.1473 30.5661L29.6145 3.93988L29.6131 3.93846Z" fill="#FEFEFE"/>
<path d="M134.557 12.0074C134.488 12.939 134.132 13.8136 134.024 14.7437C133.276 21.2133 135.864 28.4393 136.434 34.9701C136.672 37.7007 137.052 41.8913 135.31 44.1546C134.77 44.8569 134.139 44.9737 133.615 45.458C132.845 46.1702 132.285 47.3453 131.282 48.1857C130.913 48.4933 130.398 48.5774 130.077 48.8551C129.298 49.5303 129.08 50.8849 127.677 51.1413C126.377 51.3792 125.503 51.2381 124.817 50.063C127.23 50.496 127.62 47.4607 129.455 46.9208C129.989 46.7627 130.429 46.9977 130.997 46.5889C131.494 46.2314 131.737 45.23 131.855 44.6347C132.16 43.1034 132.048 40.8671 131.936 39.2832C131.836 37.873 131.255 32.4803 130.772 31.4476C130.71 31.3137 130.663 31.2111 130.533 31.1285C129.269 32.1584 126.184 35.9344 124.714 36.1766C122.415 36.5541 122.223 34.5841 120.763 33.7751C120.123 33.4204 119.357 33.5144 118.712 33.2024C118.263 32.2609 119.608 31.9746 119.753 31.2154L119.941 18.6622C119.887 18.3773 118.692 17.084 118.443 16.9729C118.04 16.7934 116.604 17.0626 116.759 16.4102C116.809 16.2009 117.947 15.7693 118.266 15.4787C119.139 14.6867 119.453 12.7937 120.797 12.5758C123.216 12.1826 123.338 14.0628 125.191 14.9089C125.398 15.6852 124.483 15.1525 124.439 15.8433L124.616 29.358C126.475 30.3152 127.126 33.5942 129.096 30.6257C130.524 28.4735 129.654 26.7015 129.505 24.4681C129.352 22.2118 129.009 18.091 129.918 16.0727C130.352 15.1084 130.697 15.5257 131.272 14.9901C132.14 14.1811 132.735 11.5146 134.558 12.0089L134.557 12.0074Z" fill="#FEFEFE"/>
<path d="M56.2264 64.6861L55.8503 75.3748H55.2891L54.8874 64.6192C54.745 64.1947 53.5756 64.1306 53.124 63.9454C49.734 62.5566 47.1202 59.4386 47.4208 55.597C47.5661 53.7482 47.9919 54.1883 48.8523 53.187C49.3893 52.5617 49.8266 51.5788 50.6171 51.1088C50.9433 50.9151 52.3121 50.3467 52.1996 51.0034C49.9206 51.8609 50.7197 55.4461 51.6911 57.1311C51.9318 57.5485 54.6054 60.94 55.0997 60.3759L55.2521 49.069C53.1739 47.4467 49.1614 45.0807 49.489 41.93C49.64 40.4799 50.6385 39.866 51.5358 38.906C52.4418 37.9374 52.4873 36.9659 54.3504 37.3178C54.3818 37.9716 53.671 37.587 53.2494 38.1824C52.5173 39.2193 52.8278 40.9386 53.634 41.8773L55.2863 43.6891L55.6652 38.4416C56.0455 38.4787 55.7378 39.9914 56.3161 39.7521C56.856 39.5284 57.2405 37.7722 58.296 37.4189C58.8159 37.2451 60.2418 37.2437 60.8215 37.3121C62.7658 37.5414 64.5847 42.2091 66.7698 41.7761C67.1315 41.7049 68.4491 40.6623 68.5944 41.3517C68.6357 42.296 67.3951 42.2091 67.1372 42.4214C67.0603 42.4841 66.5561 43.7632 66.1459 44.1478C64.6844 45.5095 62.8228 45.0565 61.3841 43.8743C59.8543 42.6165 58.5852 39.0798 56.0298 40.4415C56.2036 41.628 55.6595 43.588 56.4087 44.538C60.6805 47.9893 71.305 52.0816 67.942 59.2577C67.6386 59.9044 64.6617 63.4754 64.166 63.7289C64.0022 63.813 60.8115 64.689 60.6278 64.689H56.2235L56.2264 64.6861ZM64.8012 60.8901C65.8567 59.9358 64.9465 57.0514 64.2813 55.9717C63.7657 55.1341 61.83 53.3536 61.0052 52.687C59.5153 51.482 57.7747 50.6188 56.2278 49.5006C55.7976 49.9265 56.0369 59.5797 56.3076 60.9499C58.3388 61.3829 60.6192 61.7205 62.7017 61.5097C63.0578 61.4741 64.6161 61.0568 64.8012 60.8901Z" fill="#FEFEFE"/>
<path d="M104.952 16.8761C105.122 17.1097 108.134 13.9361 108.425 13.694C109.154 13.0872 109.891 12.3251 110.93 12.5858C110.963 13.5416 112.118 14.476 112.936 14.7964C113.89 15.1711 114.936 14.9916 115.699 15.2195C115.88 15.2736 116.06 15.4545 116.01 15.6568C114.856 16.2265 114.793 17.2963 114.701 18.4728C114.48 21.2803 115.306 24.5336 115.05 27.2599C114.838 29.5204 114.355 28.5276 113.264 29.5048C112.569 30.1258 112.291 31.3536 111.413 32.0587C110.648 32.674 109.925 32.5473 109.284 33.1156C107.74 34.483 107.934 37.0512 104.777 35.8205C104.408 36.0783 104.511 41.2859 103.368 42.1975C102.997 42.4952 102.532 42.4611 102.042 42.934C101.313 43.6376 100.679 45.9466 99.4313 45.7642C98.5482 45.6346 99.5139 43.7145 99.6507 42.9795C100.467 38.5924 100.192 32.4604 100.276 27.8567C100.344 24.1618 100.165 20.4741 100.455 16.7863L100.641 16.4089C102.462 15.7451 102.421 13.1769 104.481 12.7553C104.662 12.788 104.954 14.0045 104.954 14.1626V16.8818L104.952 16.8761ZM104.764 29.8124C106.988 28.0732 106.684 29.9933 108.264 31.0915C108.667 31.3721 109.829 32.147 110.178 31.5815L110.403 19.9656C110.426 19.1579 109.335 19.2505 108.64 18.903C107.882 18.5241 107.334 17.819 106.731 17.2521L104.764 19.0297V29.811V29.8124Z" fill="#FEFEFE"/>
<path d="M97.4557 27.6581L87.2841 36.2287C86.7372 36.901 84.0123 34.8085 83.8713 34.498L83.8 17.4637C85.4552 17.2457 85.5478 15.3413 86.5862 14.3442L85.3583 13.8884L85.2828 13.3244C87.22 12.9782 87.2172 10.071 89.3552 9.78617C90.8309 9.5896 94.6853 12.4085 96.3376 13.0309C97.2193 13.3628 98.0369 13.5281 98.9571 13.6919C99.0767 13.8571 98.2833 14.8086 98.1167 15.0052C95.4374 18.1616 93.2338 19.9464 90.8195 23.6427C90.5474 24.06 90.3167 24.8349 90.0475 25.1212C89.6401 25.5542 88.6558 25.5685 88.3054 26.1909V30.4413C88.3895 30.6878 89.8039 31.625 90.1016 31.6649C90.5232 31.7204 92.5458 30.0881 92.6883 29.638L92.9903 24.409C95.0528 23.9675 94.9103 20.5133 97.4572 21.0033V27.6595L97.4557 27.6581ZM88.2727 15.1889V23.6256L93.335 17.7215L88.2727 15.1889Z" fill="#FEFEFE"/>
<path d="M73.4217 25.2671C73.0855 25.5876 71.8691 25.5705 71.6327 26.3839C71.5087 26.8097 71.5315 30.0246 71.6896 30.3736C71.8705 30.7738 73.3932 31.7624 73.8476 31.6171C74.1695 31.5131 76.1238 29.9078 76.1993 29.6443L76.3004 24.3968C78.5367 24.1931 78.2618 20.5367 80.7687 21.0125C81.0251 21.2575 81.2188 27.314 80.5779 28.0219C77.8729 29.9007 75.5996 32.3065 73.0955 34.4103C72.4887 34.9203 70.8663 36.4031 70.1841 36.3902C69.8123 36.3831 67.5261 34.8234 67.3794 34.4986L67.2769 17.5654C68.8978 17.0854 68.9676 15.4117 70.0943 14.3449L68.6001 13.5956C70.4988 12.9404 70.8906 9.85374 73.0172 9.76258C74.3761 9.70418 78.5552 12.6441 80.2203 13.2167C80.8499 13.4332 82.2928 13.419 82.2857 13.9717C82.2814 14.3306 78.0481 18.4471 77.4114 19.2263C76.43 20.4228 75.46 21.8628 74.5911 23.1533C74.3048 23.5792 73.5983 25.1019 73.4246 25.2671H73.4217ZM71.5942 23.6248L76.8374 17.9073L71.8734 15.1895C71.3635 17.96 71.6782 20.8145 71.5942 23.6248Z" fill="#FEFEFE"/>
<path d="M73.6554 47.8128C74.5357 47.0507 74.5927 45.9867 75.8205 45.5736C78.6081 44.635 79.1992 48.3099 82.0879 47.6262C82.132 48.364 81.0267 48.1746 80.964 48.8426L80.5923 59.0513C81.4512 59.0627 81.8899 60.178 82.5209 60.4272C82.9311 60.5896 83.0636 60.3888 83.3271 60.3988C84.8512 60.4515 82.9867 61.2605 82.6505 61.5924C81.9853 62.249 81.8301 63.5595 80.6692 63.7475C79.0425 64.011 78.5155 61.8402 77.027 62.0625C76.8347 61.403 77.356 61.534 77.4928 61.3175C78.0169 60.4871 77.3261 52.5375 77.5554 50.9422C76.9073 50.4636 74.5144 48.1475 73.8306 48.6432C73.2538 49.0606 73.7082 57.8021 73.2794 59.0613C74.0372 59.0199 74.3577 59.7792 74.8804 60.1837C75.0043 60.527 76.2706 60.6908 76.0926 61.0312C75.9801 61.2448 75.52 61.3631 75.3405 61.5924C74.795 62.2875 74.4389 63.6407 73.3606 63.7504C71.9732 63.8914 71.0175 62.1052 69.7241 61.7804V61.5055L70.1913 61.3232L70.2768 40.0655C71.5089 39.7991 71.6114 38.2095 72.4604 37.7124C72.7823 37.5244 73.6583 37.3606 73.6583 37.7836V47.8142L73.6554 47.8128Z" fill="#FEFEFE"/>
<path d="M54.5387 15.7514C54.9802 15.8682 54.8549 15.6389 54.9674 15.5121C56.322 13.978 57.9017 11.36 60.2519 11.8201C61.4256 12.0494 63.162 16.4437 64.7516 16.522C65.1718 16.5434 65.978 16.032 65.978 16.7869C65.978 17.2741 64.9923 17.4293 64.5536 17.8039C63.7616 18.4805 63.4995 19.7525 62.5039 20.4405C60.0226 22.1526 57.5968 17.925 56.567 16.1602C55.4531 15.9807 54.6298 17.1017 54.5258 18.0846C54.127 21.8535 55.1198 26.1481 54.1584 29.8928C55.5172 30.5452 56.2836 32.0906 57.7991 32.4225C58.2535 33.0834 57.3632 33.0849 56.9715 33.4709C56.0642 34.3654 55.9716 36.1787 54.2595 36.3809C51.9448 36.6558 51.8565 35.0377 50.4848 34.3383C49.6402 33.9082 48.0705 34.1674 50.0475 33.0649L50.0319 16.2542C51.687 15.8753 51.838 13.6533 53.1542 12.9653C53.5003 12.7844 54.5358 12.5764 54.5358 13.0336V15.7528L54.5387 15.7514Z" fill="#FEFEFE"/>
<path d="M95.9556 47.4382C95.9428 48.1404 94.9457 48.6432 94.8361 49.2215C94.4956 51.0063 95.0426 53.7611 95.034 55.5957C95.0312 56.2766 94.8019 57.0514 94.7349 57.7451L87.7782 63.7205C86.9478 64.4483 84.9977 62.9541 84.8895 62.1636C84.4123 58.6867 85.267 54.1243 84.8952 50.5263L85.0875 50.156C86.2313 49.9694 86.123 48.7116 86.9577 48.0892C87.1628 47.5963 85.9108 47.9951 86.0219 47.3442C88.0118 46.1035 87.499 43.8715 90.3976 45.0253C92.2351 45.756 93.866 47.367 95.9528 47.4368L95.9556 47.4382ZM88.0858 48.8441V59.5313C88.0858 59.6709 89.3265 60.6765 89.6698 60.5726L91.3634 59.2479L91.4517 51.126L92.3961 50.4408C90.9759 50.3141 89.7153 49.2814 88.4676 48.6447L88.0858 48.8455V48.8441Z" fill="#FEFEFE"/>
<path d="M122.195 47.6264C122.411 48.3614 122.562 48.8841 123.034 49.5037C125.157 52.2927 129.797 53.4436 129.044 57.7595C128.73 59.5657 127.925 59.5101 126.966 60.5542C126.013 61.5911 125.127 63.0212 123.764 63.7249C121.677 64.8017 118.303 63.0739 117.78 60.7607C117.409 59.117 117.839 59.7124 118.437 59.1469C119.112 58.5087 119.397 56.9547 120.608 56.8109C121.008 56.7639 120.824 56.855 120.903 57.0715C121.076 57.5516 121.048 58.0359 121.287 58.5629C122.259 60.7052 126.518 62.3347 125.713 58.4461C125.283 56.3693 120.851 54.1473 119.601 52.1873C119.091 51.3896 118.736 49.857 119.132 48.9753C119.272 48.6648 119.692 48.7217 119.958 48.4839C120.478 48.0195 120.786 47.1606 121.437 46.5837C121.724 46.3287 122.102 46.3017 122.387 46.0353C122.999 45.4641 122.991 44.5312 124.206 44.289C125.78 43.9756 126.072 45.7989 127.01 46.0837C127.552 46.249 128.844 45.7704 128.939 46.2191C129.034 46.6677 128.12 46.7375 127.824 46.9754C126.812 47.7845 126.575 50.2772 124.088 49.1989L122.193 47.6249L122.195 47.6264Z" fill="#FEFEFE"/>
<path d="M108.888 49.3123C109.08 48.556 109.409 48.8921 109.835 48.4791C109.926 48.3893 111.25 46.492 111.287 46.3695C111.611 45.2842 111.03 40.6648 111.353 40.1549C111.389 40.0979 111.936 39.9655 112.173 39.7561C112.883 39.1236 113.068 37.7534 114.264 37.5283L114.698 37.7833V46.8766L117.137 47.5347C117.127 48.0717 116.366 48.0062 116.063 48.2441C115.822 48.4335 114.764 50.2054 114.708 50.543C114.291 53.124 115.131 56.4671 114.5 59.1193C115.279 59.511 115.761 60.1178 116.394 60.6505C116.614 60.8343 117.098 60.887 117.135 61.0351C117.209 61.3229 116.557 61.5493 116.3 61.8883C115.808 62.5421 115.762 63.3925 114.801 63.7685C113.312 64.3497 112.842 62.9452 111.957 62.4638C111.554 62.2444 111.069 62.3342 110.764 61.9695L111.341 61.2288L111.325 49.9733C111.013 48.9064 109.95 49.5132 109.344 49.4761C109.124 49.4619 108.959 49.3223 108.888 49.318C108.852 49.4562 108.963 49.7197 108.864 49.8493C108.772 49.9676 108.09 50.0032 107.755 50.3408C107.075 51.0259 107.042 52.4133 105.606 52.5158C103.388 52.6753 102.571 48.8736 101.524 49.15C100.594 49.395 100.512 51.2168 100.457 52.0372C100.299 54.3846 100.723 56.8374 100.263 59.1435C100.982 59.5424 101.531 60.1321 102.15 60.6534C102.354 60.8257 102.665 60.8414 102.776 60.9254C103.328 61.3471 102.376 61.6676 102.138 61.9667C101.579 62.6675 101.515 63.7614 100.347 63.9323C98.4584 64.2101 98.4314 62.1689 96.705 62.2516C96.5127 61.5892 97.0326 61.726 97.1694 61.508C97.7591 60.5765 96.9301 51.08 97.2591 49.2525C98.7761 48.7867 98.6308 46.4265 100.453 46.69L100.733 48.7526C101.873 47.7598 102.85 45.6075 104.662 45.9422C105.585 46.1132 106.62 49.0531 107.864 49.3109C108.177 49.3764 108.557 49.2938 108.885 49.3152L108.888 49.3123Z" fill="#FEFEFE"/>
<path d="M124.795 42.0225L125.378 43.6862C124.756 43.3614 124.24 43.4526 123.617 43.7047C122.243 44.2645 122.172 45.9951 120.507 46.1219C120.615 45.2516 121.166 45.3997 121.729 44.8143C122.682 43.8229 123.068 41.8245 124.794 42.0225H124.795Z" fill="#FEFEFE"/>
</svg>
