<svg width="20" height="20" viewBox="0 0 20 20" fill="none" xmlns="http://www.w3.org/2000/svg">
<mask id="mask0_40549_708" style="mask-type:alpha" maskUnits="userSpaceOnUse" x="0" y="0" width="20" height="20">
<rect width="19.5819" height="19.5819" fill="#D9D9D9"/>
</mask>
<g mask="url(#mask0_40549_708)">
<path d="M9.79095 17.1341L8.60788 16.0734C7.23443 14.8359 6.09895 13.7684 5.20145 12.8709C4.30395 11.9734 3.59002 11.1677 3.05968 10.4538C2.52934 9.73989 2.15878 9.08376 1.948 8.48542C1.73722 7.88709 1.63184 7.27515 1.63184 6.64962C1.63184 5.37136 2.06019 4.30388 2.9169 3.44717C3.7736 2.59046 4.84109 2.16211 6.11935 2.16211C6.82647 2.16211 7.4996 2.31169 8.13873 2.61086C8.77786 2.91003 9.3286 3.33158 9.79095 3.87552C10.2533 3.33158 10.804 2.91003 11.4432 2.61086C12.0823 2.31169 12.7554 2.16211 13.4625 2.16211C14.7408 2.16211 15.8083 2.59046 16.665 3.44717C17.5217 4.30388 17.9501 5.37136 17.9501 6.64962C17.9501 7.27515 17.8447 7.88709 17.6339 8.48542C17.4231 9.08376 17.0526 9.73989 16.5222 10.4538C15.9919 11.1677 15.278 11.9734 14.3804 12.8709C13.4829 13.7684 12.3475 14.8359 10.974 16.0734L9.79095 17.1341ZM9.79095 14.9311C11.0964 13.7616 12.1707 12.7588 13.0138 11.9224C13.8569 11.0861 14.5232 10.3586 15.0128 9.73989C15.5023 9.12115 15.8423 8.57041 16.0327 8.08767C16.223 7.60492 16.3182 7.12557 16.3182 6.64962C16.3182 5.83371 16.0463 5.15378 15.5023 4.60984C14.9584 4.0659 14.2785 3.79393 13.4625 3.79393C12.8234 3.79393 12.2319 3.97411 11.6879 4.33447C11.144 4.69483 10.77 5.15378 10.5661 5.71132H9.01583C8.81185 5.15378 8.4379 4.69483 7.89395 4.33447C7.35001 3.97411 6.75848 3.79393 6.11935 3.79393C5.30344 3.79393 4.62351 4.0659 4.07957 4.60984C3.53563 5.15378 3.26366 5.83371 3.26366 6.64962C3.26366 7.12557 3.35885 7.60492 3.54923 8.08767C3.73961 8.57041 4.07957 9.12115 4.56912 9.73989C5.05866 10.3586 5.72499 11.0861 6.5681 11.9224C7.41121 12.7588 8.48549 13.7616 9.79095 14.9311Z" fill="#FEFEFE"/>
</g>
</svg>
