<svg width="27" height="27" viewBox="0 0 27 27" fill="none" xmlns="http://www.w3.org/2000/svg">
<path d="M9.75217 27.006H24.0053C24.8012 27.006 25.5644 26.6899 26.1271 26.1271C26.6899 25.5644 27.006 24.8012 27.006 24.0053V22.505C27.006 21.7092 26.6899 20.946 26.1271 20.3832C25.5644 19.8205 24.8012 19.5043 24.0053 19.5043H9.75217V27.006ZM9.75217 17.2538H24.0053C24.8012 17.2538 25.5644 16.9377 26.1271 16.375C26.6899 15.8122 27.006 15.049 27.006 14.2532V12.7528C27.006 11.957 26.6899 11.1938 26.1271 10.631C25.5644 10.0683 24.8012 9.75217 24.0053 9.75217H9.75217V17.2538ZM7.50167 9.75217V17.2538H3.00067C2.20484 17.2538 1.44161 16.9377 0.878875 16.375C0.316141 15.8122 0 15.049 0 14.2532V12.7528C0 11.957 0.316141 11.1938 0.878875 10.631C1.44161 10.0683 2.20484 9.75217 3.00067 9.75217H7.50167ZM9.75217 7.50167H24.0053C24.8012 7.50167 25.5644 7.18553 26.1271 6.6228C26.6899 6.06006 27.006 5.29683 27.006 4.501V3.00067C27.006 2.20484 26.6899 1.44161 26.1271 0.878875C25.5644 0.316141 24.8012 0 24.0053 0H9.75217V7.50167ZM7.50167 0V7.50167H3.00067C2.20484 7.50167 1.44161 7.18553 0.878875 6.6228C0.316141 6.06006 0 5.29683 0 4.501V3.00067C0 2.20484 0.316141 1.44161 0.878875 0.878875C1.44161 0.316141 2.20484 0 3.00067 0H7.50167ZM7.50167 19.5043V27.006H3.00067C2.20484 27.006 1.44161 26.6899 0.878875 26.1271C0.316141 25.5644 0 24.8012 0 24.0053V22.505C0 21.7092 0.316141 20.946 0.878875 20.3832C1.44161 19.8205 2.20484 19.5043 3.00067 19.5043H7.50167Z" fill="white"/>
</svg>
