<svg width="21" height="19" viewBox="0 0 21 19" fill="none" xmlns="http://www.w3.org/2000/svg">
<path fill-rule="evenodd" clip-rule="evenodd" d="M5.11479 1.71983C4.18078 2.66573 3.30023 3.43966 3.15792 3.43966C3.0156 3.43966 2.57202 3.10797 2.17221 2.70259C1.7724 2.2972 1.30523 1.96552 1.13384 1.96552C0.741623 1.96552 0 2.70308 0 3.09307C0 3.55578 1.75253 5.56897 2.15525 5.56897C2.29207 5.56897 2.44892 5.64267 2.50385 5.73276C2.55877 5.82284 2.89008 5.89655 3.2403 5.89655C3.59052 5.89655 3.87692 5.82284 3.87692 5.73276C3.87692 5.64267 3.98806 5.56897 4.12392 5.56897C4.25993 5.56897 5.27762 4.64976 6.38545 3.5263C8.0976 1.79042 8.4 1.40747 8.4 0.975879C8.4 0.313009 8.07143 0 7.37568 0C6.87669 0 6.62082 0.194586 5.11479 1.71983ZM11.3077 2.62069C11.3077 2.71078 11.2298 2.78448 11.1347 2.78448C10.5431 2.78448 10.2898 3.90483 10.7709 4.39309C11.0093 4.63502 11.5875 4.67384 15.5865 4.71609C20.0059 4.76278 20.143 4.75459 20.5655 4.4175C20.8301 4.20653 21 3.91089 21 3.66176C21 3.23999 20.6705 2.78448 20.3653 2.78448C20.2702 2.78448 20.1923 2.71078 20.1923 2.62069C20.1923 2.51553 18.6039 2.4569 15.75 2.4569C12.8961 2.4569 11.3077 2.51553 11.3077 2.62069ZM2.50385 11.7931C2.44892 11.8832 2.29352 11.9569 2.15864 11.9569C2.02359 11.9569 1.63412 12.2427 1.29312 12.5919C-0.424039 14.3504 -0.424039 16.2789 1.29312 18.0374C1.63412 18.3866 2.06414 18.6724 2.24894 18.6724C2.43358 18.6724 2.58462 18.7461 2.58462 18.8362C2.58462 18.9309 3.09621 19 3.79615 19C4.4961 19 5.00769 18.9309 5.00769 18.8362C5.00769 18.7461 5.11657 18.6724 5.24968 18.6724C5.61492 18.6724 6.70756 17.5344 7.09138 16.7544C7.28377 16.3636 7.43077 15.7484 7.43077 15.3348C7.43077 14.346 6.64489 12.6121 6.19678 12.6121C6.11504 12.6121 5.94348 12.4647 5.81538 12.2845C5.68728 12.1043 5.45742 11.9569 5.3046 11.9569C5.15178 11.9569 4.98185 11.8832 4.92692 11.7931C4.872 11.703 4.32681 11.6293 3.71538 11.6293C3.10396 11.6293 2.55877 11.703 2.50385 11.7931ZM2.89218 13.9686C2.75035 14.0783 2.51354 14.4049 2.36605 14.6944C2.11809 15.1808 2.11761 15.2708 2.35878 15.8819C2.50223 16.2455 2.72079 16.5431 2.84453 16.5431C2.96811 16.5431 3.06923 16.6168 3.06923 16.7069C3.06923 16.797 3.36 16.8707 3.71538 16.8707C4.07077 16.8707 4.36154 16.797 4.36154 16.7069C4.36154 16.6168 4.45248 16.5426 4.56346 16.5421C4.81433 16.5408 5.33077 15.646 5.33077 15.2126C5.33077 14.8893 5.19023 14.6669 4.6137 14.0783C4.25751 13.7146 3.29926 13.6535 2.89218 13.9686ZM11.3077 14.25C11.3077 14.3401 11.2298 14.4138 11.1347 14.4138C10.594 14.4138 10.2772 15.5325 10.7019 15.9425C11.2531 16.4746 11.8291 16.5431 15.75 16.5431C19.6709 16.5431 20.2469 16.4746 20.7981 15.9425C21.2228 15.5325 20.906 14.4138 20.3653 14.4138C20.2702 14.4138 20.1923 14.3401 20.1923 14.25C20.1923 14.1448 18.6039 14.0862 15.75 14.0862C12.8961 14.0862 11.3077 14.1448 11.3077 14.25Z" fill="white"/>
</svg>
