<svg width="38" height="27" viewBox="0 0 38 27" fill="none" xmlns="http://www.w3.org/2000/svg">
<path d="M18.7744 1.00187H7.72622C6.84166 1.00187 5.96579 1.17634 5.14875 1.5153C4.33171 1.85426 3.58956 2.35105 2.96478 2.97722C2.33999 3.60339 1.84486 4.34665 1.50772 5.16444C1.17057 5.98223 0.998048 6.85849 1.00002 7.74304V19.2721C1.00002 21.056 1.70867 22.7668 2.97008 24.0282C3.59466 24.6528 4.33615 25.1482 5.15221 25.4863C5.96827 25.8243 6.84292 25.9983 7.72622 25.9983H18.7744C20.5583 25.9983 22.2691 25.2896 23.5305 24.0282C24.792 22.7668 25.5006 21.056 25.5006 19.2721V7.74491C25.5033 6.85997 25.3313 5.9832 24.9945 5.16487C24.6577 4.34654 24.1626 3.60274 23.5377 2.97612C22.9128 2.3495 22.1704 1.85239 21.353 1.51328C20.5356 1.17418 19.6593 0.99975 18.7744 1M36.5488 8.7066V18.3141C36.5488 18.7819 36.416 19.2421 36.1652 19.6388C35.9113 20.0366 35.5518 20.356 35.1268 20.5612C34.7047 20.7725 34.2292 20.8532 33.761 20.7932C33.2994 20.7379 32.8616 20.5581 32.4944 20.273L26.4604 15.4309C26.1706 15.1924 25.9363 14.8936 25.7737 14.5553C25.6112 14.217 25.5244 13.8473 25.5193 13.472C25.5193 13.0978 25.6035 12.7292 25.7682 12.3962C25.9403 12.0819 26.176 11.8068 26.4604 11.5879L32.4944 6.7851C32.8616 6.49892 33.3004 6.31901 33.7629 6.26496C34.2306 6.20509 34.7059 6.28554 35.1268 6.49509C35.5454 6.69593 35.8999 7.00903 36.151 7.3995C36.402 7.78997 36.5397 8.24247 36.5488 8.7066Z" stroke="white" stroke-width="2" stroke-linecap="round" stroke-linejoin="round"/>
</svg>
