<svg width="32" height="29" viewBox="0 0 32 29" fill="none" xmlns="http://www.w3.org/2000/svg">
<path d="M9.9988 7.0007H23.122C26.2821 7.0007 27.8614 7.0007 28.9968 7.7596C29.4872 8.08805 29.9101 8.5095 30.2371 9.00143C30.966 10.0903 30.9945 11.5901 30.996 14.5027V16.0025M15.998 6.9992L15.0486 5.09895C14.2612 3.52416 13.5413 1.93887 11.7971 1.28496C11.0337 1 10.1608 1 8.41501 1C5.69137 1 4.32956 1 3.30669 1.56992C2.5775 1.97739 1.97613 2.5798 1.56992 3.30969C1 4.32956 1 5.69287 1 8.41801V13.0014C1 20.0745 1 23.6095 3.19571 25.8067C5.05696 27.6694 7.87958 27.9529 12.9984 27.9964" stroke="white" stroke-width="2" stroke-linecap="round"/>
<path d="M26.4968 24.2513L28.6641 25.6956C29.6914 26.381 30.2044 26.7229 30.5988 26.5115C30.9962 26.2985 30.9962 25.6821 30.9962 24.4477V22.5565C30.9962 21.3221 30.9962 20.7057 30.6003 20.4928C30.2043 20.2828 29.6914 20.6232 28.6656 21.3071L26.4968 22.7515M26.4968 24.2513V22.7515M26.4968 24.2513C26.4968 25.6536 26.4968 26.354 26.1954 26.8759C25.9979 27.2179 25.714 27.5018 25.372 27.6993C24.8501 28.0008 24.1497 28.0008 22.7473 28.0008H21.9974C19.8767 28.0008 18.8164 28.0008 18.158 27.3408C17.498 26.6839 17.498 25.6236 17.498 23.5014C17.498 21.3791 17.498 20.3203 18.158 19.6619C18.8149 19.002 19.8752 19.002 21.9974 19.002H22.7473C24.1497 19.002 24.8501 19.002 25.372 19.3034C25.714 19.5009 25.9979 19.7848 26.1954 20.1268C26.4968 20.6487 26.4968 21.3491 26.4968 22.7515" stroke="white" stroke-width="2" stroke-linejoin="round"/>
</svg>
