<svg width="32" height="32" viewBox="0 0 32 32" fill="none" xmlns="http://www.w3.org/2000/svg">
<mask id="mask0_40549_684" style="mask-type:alpha" maskUnits="userSpaceOnUse" x="0" y="0" width="32" height="32">
<rect width="32" height="32" fill="#D9D9D9"/>
</mask>
<g mask="url(#mask0_40549_684)">
<path d="M5.33325 25.3337V22.667H7.99992V13.3337C7.99992 11.4892 8.55547 9.85033 9.66659 8.41699C10.7777 6.98366 12.2221 6.04477 13.9999 5.60033V4.66699C13.9999 4.11144 14.1944 3.63921 14.5833 3.25033C14.9721 2.86144 15.4444 2.66699 15.9999 2.66699C16.5555 2.66699 17.0277 2.86144 17.4166 3.25033C17.8055 3.63921 17.9999 4.11144 17.9999 4.66699V5.60033C19.7777 6.04477 21.2221 6.98366 22.3333 8.41699C23.4444 9.85033 23.9999 11.4892 23.9999 13.3337V22.667H26.6666V25.3337H5.33325ZM15.9999 29.3337C15.2666 29.3337 14.6388 29.0725 14.1166 28.5503C13.5944 28.0281 13.3333 27.4003 13.3333 26.667H18.6666C18.6666 27.4003 18.4055 28.0281 17.8833 28.5503C17.361 29.0725 16.7333 29.3337 15.9999 29.3337Z" fill="#FEFEFE"/>
</g>
</svg>
